# xmcd
#
# Track frame offsets: 
#        150
#        19479
#        36939
#        54352
#        74027
#        93565
#        111749
#        133002
#        152336
#        172203
#        187188
#        206600
#        223783
#        241149
#
# Disc length: 3495 seconds
#
# Revision: 0
# Processed by: cddbd v1.5.2PL0 Copyright (c) Steve Scherf et al.
# Submitted via: ExactAudioCopyFreeDBPlugin 1.0
#
DISCID=dc0da50e
DTITLE=雨天  - DTSES忘情都市II
DYEAR=2006
DGENRE=DTSES
TTITLE0=脆弱男人
TTITLE1=爱上你是一个错
TTITLE2=生日礼物
TTITLE3=伤心的话留到明天再说
TTITLE4=不想看见你哭
TTITLE5=别让爱你的人流泪
TTITLE6=想起
TTITLE7=别说我的眼泪你无所谓
TTITLE8=一千个伤心的理由
TTITLE9=你的美丽是我的伤悲
TTITLE10=两个对我恩重如山的人
TTITLE11=和不爱我的人说再见
TTITLE12=不再回头
TTITLE13=分手在那个秋天
EXTD=
EXTT0=
EXTT1=
EXTT2=
EXTT3=
EXTT4=
EXTT5=
EXTT6=
EXTT7=
EXTT8=
EXTT9=
EXTT10=
EXTT11=
EXTT12=
EXTT13=
PLAYORDER=
